<?xml version="1.0" encoding="UTF-8"?>
<!DOCTYPE svg PUBLIC "-//W3C//DTD SVG 1.1//EN" "http://www.w3.org/Graphics/SVG/1.1/DTD/svg11.dtd">
<!-- Creator: CorelDRAW X6 -->
<svg xmlns="http://www.w3.org/2000/svg" xml:space="preserve" width="8.5in" height="11in" version="1.1" style="shape-rendering:geometricPrecision; text-rendering:geometricPrecision; image-rendering:optimizeQuality; fill-rule:evenodd; clip-rule:evenodd"
viewBox="0 0 8500 11000"
 xmlns:xlink="http://www.w3.org/1999/xlink">
 <defs>
  <style type="text/css">
   <![CDATA[
    .str2 {stroke:#373435;stroke-width:3}
    .str4 {stroke:#FEA91B;stroke-width:3}
    .str3 {stroke:#FFF481;stroke-width:3}
    .str5 {stroke:#373435;stroke-width:6.94488}
    .str0 {stroke:#373435;stroke-width:13.8898}
    .str1 {stroke:#373435;stroke-width:20.8346}
    .fil6 {fill:none}
    .fil0 {fill:#373435}
    .fil11 {fill:#FEFEFE}
    .fil1 {fill:#E6E7E8}
    .fil10 {fill:#FFF481}
    .fil4 {fill:#373435;fill-rule:nonzero}
    .fil2 {fill:#4B4B4D;fill-rule:nonzero}
    .fil7 {fill:#E50510;fill-rule:nonzero}
    .fil5 {fill:#EB0915;fill-rule:nonzero}
    .fil9 {fill:#FEA91B;fill-rule:nonzero}
    .fil8 {fill:#FFF481;fill-rule:nonzero}
    .fil3 {fill:#FFF6B1;fill-rule:nonzero}
   ]]>
  </style>
 </defs><!--
 <g id="Layer_x0020_1">
  <metadata id="CorelCorpID_0Corel-Layer"/>
  <path class="fil0" d="M5855 6400c2,-3 3,-5 4,-7 7,6 23,12 37,2 6,4 24,10 36,-2 1,43 57,48 89,49 2,0 4,4 1,6 -6,8 -24,21 -2,34 23,17 168,15 179,6 -10,-8 -18,-17 -30,-33 11,-6 95,-39 78,-39 -29,-1 -163,6 -161,3 10,-18 13,-23 15,-30 -31,-2 -118,0 -150,-17 3,-9 4,-18 5,-22 3,2 7,6 11,8 24,-23 58,-56 79,-78 1,-21 1,-52 0,-62 -26,0 -78,2 -101,-1 -44,-25 -70,-23 -107,0 -15,3 -54,1 -85,3 -1,17 0,67 0,82 4,3 71,49 89,60 -49,16 -80,10 -148,17 4,9 10,19 14,28 -50,6 -106,0 -162,-3 25,19 55,27 82,38 -9,13 -20,22 -31,33 59,11 113,8 163,1 31,-7 25,-27 17,-33 -13,-13 -6,-14 11,-16 27,-2 54,-4 67,-27z"/>
  <path class="fil0" d="M5833 6357c-71,10 -141,16 -218,11 -81,-12 -132,-109 -216,-93 40,-30 76,-53 117,-52 -15,-26 -35,-63 -36,-100 32,5 67,20 96,36 -13,-28 -11,-45 -7,-74 1,-19 12,-20 22,-9 21,23 35,46 64,67 15,11 24,15 35,30 35,50 43,98 62,152l57 8 24 24z"/>
  <polygon class="fil1" points="116,208 2417,208 2417,698 116,698 "/>
  <polygon class="fil2" points="376,564 376,326 419,326 419,526 526,526 526,564 "/>
  <path id="1" class="fil2" d="M547 476c0,-26 7,-48 23,-65 15,-16 35,-25 61,-25 26,0 46,8 61,24 15,16 22,38 22,66 0,28 -7,50 -22,67 -15,16 -36,24 -61,24 -27,0 -48,-8 -62,-25 -15,-16 -22,-38 -22,-66zm42 0c0,39 14,58 42,58 12,0 22,-5 30,-15 7,-10 11,-24 11,-43 0,-37 -14,-56 -41,-56 -13,0 -23,5 -31,15 -7,10 -11,23 -11,41z"/>
  <path id="2" class="fil2" d="M734 609l25 -32c15,13 31,20 48,20 12,0 21,-2 29,-6 8,-3 11,-8 11,-14 0,-11 -8,-16 -25,-16 -4,0 -11,1 -20,2 -9,1 -16,2 -21,2 -28,0 -42,-10 -42,-31 0,-5 3,-11 7,-17 5,-5 10,-9 17,-12 -20,-13 -30,-31 -30,-54 0,-19 7,-34 20,-47 14,-12 31,-18 51,-18 16,0 29,3 39,9l16 -18 28 25 -19 14c7,10 10,22 10,36 0,20 -6,36 -18,47 -12,12 -28,18 -46,18 -3,0 -7,0 -12,-1l-6 0c-1,0 -4,1 -9,3 -5,2 -8,5 -8,7 0,5 4,7 12,7 3,0 9,-1 17,-3 8,-1 14,-2 20,-2 40,0 59,16 59,48 0,17 -8,31 -23,41 -16,10 -35,15 -58,15 -26,0 -51,-8 -72,-23zm40 -158c0,10 3,18 9,24 6,6 13,10 23,10 10,0 17,-3 23,-9 5,-6 7,-15 7,-25 0,-9 -2,-16 -8,-22 -6,-6 -13,-9 -22,-9 -9,0 -17,2 -23,8 -6,6 -9,14 -9,23z"/>
  <path id="3" class="fil2" d="M903 476c0,-26 7,-48 23,-65 15,-16 35,-25 61,-25 26,0 46,8 61,24 15,16 22,38 22,66 0,28 -7,50 -22,67 -15,16 -36,24 -61,24 -27,0 -48,-8 -62,-25 -15,-16 -22,-38 -22,-66zm42 0c0,39 14,58 42,58 12,0 22,-5 30,-15 7,-10 11,-24 11,-43 0,-37 -14,-56 -41,-56 -13,0 -23,5 -31,15 -7,10 -11,23 -11,41z"/>
  <path id="4" class="fil2" d="M1094 553l12 -30c6,4 14,8 23,11 9,3 17,5 24,5 13,0 23,-4 31,-11 8,-7 12,-16 12,-26 0,-8 -2,-16 -7,-23 -4,-7 -15,-14 -32,-22l-19 -9c-17,-8 -28,-17 -35,-27 -6,-11 -9,-23 -9,-38 0,-18 6,-32 19,-44 12,-12 28,-18 48,-18 27,0 45,5 55,13l-9 29c-5,-4 -11,-7 -20,-10 -9,-3 -17,-4 -25,-4 -11,0 -20,3 -26,9 -6,7 -10,15 -10,25 0,6 2,11 4,16 2,5 5,9 9,13 4,3 13,8 25,14l20 9c16,8 28,17 34,28 7,11 10,24 10,41 0,18 -7,33 -22,45 -14,13 -33,19 -57,19 -21,0 -40,-5 -55,-15z"/>
  <path id="5" class="fil2" d="M1252 476c0,-27 7,-48 21,-65 15,-16 34,-25 58,-25 25,0 44,8 58,24 14,16 20,38 20,66 0,28 -7,51 -21,67 -14,16 -33,24 -57,24 -25,0 -45,-8 -58,-24 -14,-17 -21,-39 -21,-67zm32 0c0,44 16,66 47,66 14,0 25,-6 33,-18 9,-11 13,-27 13,-48 0,-43 -16,-64 -46,-64 -14,0 -26,5 -34,17 -8,11 -13,27 -13,47z"/>
  <path id="6" class="fil2" d="M1471 390l0 111c0,27 12,40 35,40 10,0 20,-3 28,-9 9,-5 14,-12 17,-20l0 -122 31 0 0 174 -31 0 0 -24c-3,7 -10,13 -21,19 -10,5 -21,8 -31,8 -19,0 -33,-5 -43,-16 -11,-11 -16,-27 -16,-47l0 -114 31 0z"/>
  <path id="7" class="fil2" d="M1719 419c-7,-4 -14,-7 -21,-7 -10,0 -20,5 -28,15 -8,10 -13,23 -13,37l0 100 -31 0 0 -174 31 0 0 27c12,-20 29,-31 51,-31 5,0 13,1 24,3l-13 30z"/>
  <path id="8" class="fil2" d="M1886 404l-15 21c-3,-3 -9,-6 -17,-9 -8,-2 -16,-4 -24,-4 -17,0 -30,6 -40,18 -10,12 -15,28 -15,48 0,21 5,36 15,47 10,11 24,16 42,16 14,0 28,-5 42,-16l12 26c-16,11 -37,16 -61,16 -24,0 -44,-8 -59,-24 -16,-16 -24,-37 -24,-65 0,-27 8,-50 25,-66 16,-17 38,-26 66,-26 9,0 19,2 30,6 10,4 18,8 23,12z"/>
  <path id="9" class="fil2" d="M2066 480l-126 0c0,20 6,36 17,47 10,9 22,14 38,14 17,0 32,-5 44,-15l13 22c-5,5 -12,9 -22,12 -12,5 -26,7 -41,7 -22,0 -41,-7 -56,-22 -17,-16 -26,-39 -26,-66 0,-29 9,-52 27,-69 15,-16 34,-24 55,-24 25,0 44,7 59,21 13,14 20,32 20,54 0,7 -1,13 -2,19zm-75 -68c-14,0 -26,5 -35,14 -9,8 -14,19 -15,32l96 0c0,-13 -4,-24 -11,-32 -9,-9 -21,-14 -35,-14z"/>
  <path id="10" class="fil2" d="M2117 533c4,0 8,2 11,5 4,3 5,7 5,12 0,4 -1,8 -5,11 -3,4 -7,5 -11,5 -5,0 -8,-1 -12,-5 -3,-3 -4,-7 -4,-11 0,-5 1,-9 4,-12 4,-3 7,-5 12,-5z"/>
  <path id="11" class="fil2" d="M2196 404c3,0 6,1 9,3 2,3 4,6 4,9 0,4 -2,7 -4,10 -3,2 -6,3 -9,3 -4,0 -7,-1 -9,-3 -3,-3 -4,-6 -4,-10 0,-3 1,-6 4,-9 2,-2 5,-3 9,-3zm-12 160l0 -99 -16 0 0 -17 37 0 0 116 -21 0z"/>
  <path id="12" class="fil2" d="M2301 467c-4,-3 -9,-4 -13,-4 -8,0 -14,3 -19,10 -6,7 -9,15 -9,24l0 67 -20 0 0 -116 20 0 0 18c8,-14 19,-21 34,-21 4,0 9,1 16,2l-9 20z"/>
 </g>-->
 <g id="__x0023_Layer_x0020_3">
  <metadata id="CorelCorpID_1Corel-Layer"/>
  <path class="fil3 str0" d="M6454 4992c-4,2 -14,13 -39,19 -25,6 -81,32 -120,63 -9,7 -28,22 -38,27 -72,-95 -88,-127 -199,-195 -132,-62 -228,-53 -341,10 -104,65 -115,93 -178,183 -18,-14 -45,-42 -62,-57 -32,-27 -81,-44 -111,-73 17,-14 49,-38 78,-79 27,-42 50,-76 78,-114 60,-87 196,-136 277,-167 44,-23 87,-39 98,-93 21,64 55,70 88,91 28,13 49,25 79,37 57,24 129,58 173,91 99,71 120,215 217,257z"/>
  <path class="fil4" d="M6176 6049c-7,4 -7,7 -12,10 -170,0 -370,0 -540,0 -6,-3 -4,-7 -9,-10 184,0 377,0 561,0z"/>
  <path class="fil5" d="M6073 5410c9,34 8,71 7,104 -10,75 -63,142 -118,184 23,22 76,16 105,20 -23,34 -113,16 -153,20 -5,19 -5,22 -18,36 -13,-13 -17,-21 -20,-36 -41,0 -122,13 -152,-22 34,1 72,-4 106,-18 -82,-57 -140,-163 -123,-263 10,-60 50,-120 99,-155 -24,50 -47,110 -43,166 1,74 38,158 98,197 -1,-124 -5,-228 -6,-350 15,-8 26,-20 38,-33l1 1c13,11 25,23 39,31 -1,117 -6,237 -4,354 139,-97 96,-298 52,-368 43,29 79,82 92,132z"/>
  <path class="fil5" d="M5979 5197c9,60 -38,78 -83,52 -10,8 -40,15 -53,10 -25,-6 -36,-41 -31,-63l5 0c5,10 7,26 27,38 38,8 38,-10 49,-23l7 0c10,14 18,26 41,24 24,-1 23,-30 31,-38l7 0z"/>
  <path class="fil5" d="M5781 5274c-2,10 -12,14 -18,21 -29,29 -75,83 -85,122 -17,49 -22,195 31,261 -3,2 -6,6 -10,3 -27,-15 -44,-43 -60,-69 -34,-55 -42,-114 -25,-182 15,-72 97,-142 167,-156z"/>
  <ellipse class="fil6 str1" cx="5895" cy="5523" rx="469" ry="657"/>
  <path class="fil4" d="M6133 6087c-6,4 -9,7 -13,10 -142,0 -308,0 -450,0 -5,-3 -7,-7 -12,-10 154,0 322,1 475,0z"/>
  <path class="fil4" d="M6083 6123c-5,3 -5,6 -8,10 -113,0 -245,0 -358,0 -4,-3 -5,-7 -8,-10 122,-1 252,0 374,0z"/>
  <path class="fil5" d="M6006 5274c1,10 11,14 18,21 28,29 75,83 85,122 17,49 21,195 -32,261 3,2 7,6 10,3 27,-15 44,-43 61,-69 34,-55 41,-114 25,-182 -16,-72 -97,-142 -167,-156z"/>
  <path class="fil7" d="M6148 4931c1,-2 4,-5 10,-8 6,-4 9,-6 10,-5 2,0 4,3 5,8 1,5 1,8 1,10 -2,2 -5,5 -10,8 -5,2 -9,3 -10,3 0,-1 -1,-3 -2,-6 -2,-3 -3,-6 -4,-7 -1,-2 -1,-3 0,-3z"/>
  <path class="fil7" d="M6173 4876c5,-6 9,-10 12,-12 4,-2 6,-3 8,-3l-3 5c-3,7 -3,12 -1,16 1,3 3,4 5,5 3,0 5,0 7,-1 2,-1 4,-3 5,-5 2,-2 4,-3 4,-2 1,0 1,1 0,3 -1,2 -4,7 -9,12 -4,5 -9,9 -14,12 -5,3 -9,3 -13,1 -4,-2 -6,-6 -7,-11 0,-6 2,-12 6,-19l0 -1z"/>
  <path class="fil7" d="M6192 4863c-2,3 -3,5 -5,7 -1,2 -3,4 -4,5 -2,2 -4,2 -5,3 -2,0 -3,-1 -5,-2 3,-5 8,-14 14,-24 6,-10 14,-21 22,-33 3,-3 9,-8 17,-16 1,-1 2,-1 2,0 0,0 0,0 0,1 -2,5 -8,13 -16,25 -8,13 -13,21 -16,26 -2,5 -4,7 -4,8z"/>
  <path class="fil7" d="M6146 4737c1,-1 5,-3 11,-6 6,-3 10,-4 11,-3 2,0 3,3 3,8 1,5 0,9 -1,10 -1,2 -5,5 -11,7 -5,2 -8,2 -9,1 -1,0 -1,-2 -2,-6 -1,-3 -2,-6 -3,-7 0,-2 0,-3 1,-4z"/>
  <path class="fil7" d="M6096 4863c5,-6 9,-10 12,-12 4,-2 6,-3 7,-3l-2 5c-3,6 -3,12 -1,16 1,2 3,4 5,4 3,1 5,0 7,-1 2,-1 3,-2 5,-4 2,-2 3,-3 4,-3 1,1 1,2 0,3 -1,3 -4,7 -9,12 -5,6 -9,10 -14,12 -5,3 -9,4 -13,2 -5,-2 -7,-6 -7,-12 0,-5 2,-11 6,-18l0 -1z"/>
  <path class="fil7" d="M6183 4779c4,0 11,1 21,2 4,1 14,2 29,5 15,2 27,3 37,3 10,0 15,1 16,1 0,0 0,1 -1,1 -2,1 -5,2 -8,3 -2,1 -5,2 -8,2 -3,1 -6,1 -9,1 -4,0 -8,0 -13,0 -5,0 -15,-2 -29,-4 -14,-2 -25,-4 -34,-6 -9,-2 -14,-3 -14,-4 0,-1 2,-2 7,-3 2,-1 4,-1 6,-1z"/>
  <path class="fil7" d="M6119 4847c-1,1 -6,6 -7,8 -1,1 0,0 -1,0 -1,2 0,1 -3,3 -3,2 -5,3 -7,3 -3,1 -5,3 -5,2 3,-4 7,-11 10,-15 3,-5 6,-9 9,-12 0,-1 0,-1 0,-1 0,-1 0,-1 -1,-1 -3,2 -5,3 -6,3 -5,2 -9,4 -13,6 -9,3 -19,5 -30,6 -11,2 -22,1 -33,-1 -11,-2 -22,-5 -35,-9 -12,-4 -24,-10 -37,-17l-3 -3c-7,-4 -13,-8 -18,-12 -6,-5 -10,-11 -10,-16 -1,-4 0,-10 4,-17 3,-5 7,-11 11,-17 5,-5 8,-7 9,-6 0,1 0,3 -2,6 -2,4 -2,7 -2,11 2,8 12,17 30,28 9,6 17,10 23,13 30,15 57,21 82,21 11,0 17,1 26,-3 7,-3 14,-7 21,-14l12 -13c2,-1 6,-4 14,-9 2,-2 4,-3 6,-4 2,-1 3,-2 4,-3 1,0 1,0 2,0 0,0 0,1 -1,3 -2,3 -5,5 -7,7 -19,22 -28,33 -32,40 -4,6 -8,10 -10,13z"/>
  <path class="fil7" d="M5755 4842c0,0 2,1 5,2 3,1 6,2 7,3 2,0 3,1 4,0 3,-1 4,-7 6,-18 2,1 5,2 8,4 4,1 6,2 7,1 1,0 3,-3 4,-9 2,-5 2,-10 0,-13 -1,-3 -3,-5 -7,-7 -5,-2 -8,-3 -10,-2 -1,0 -1,3 -2,7 -1,4 -2,8 -2,12 -2,-2 -5,-3 -9,-5 -4,-2 -6,-2 -8,-1 0,0 -1,4 -2,12 -1,8 -2,13 -1,14z"/>
  <path class="fil7" d="M5746 4731c3,16 3,26 0,31 -5,6 -8,10 -9,12 -1,2 -1,3 -1,4 -1,3 -1,6 -1,10 1,8 2,14 2,18 0,7 -2,12 -5,17 -2,2 -5,4 -9,7 -3,3 -6,5 -8,6 -2,1 -4,1 -5,1 0,-1 0,-2 1,-4 1,-1 1,-3 2,-5 2,-3 4,-7 7,-13 3,-4 4,-6 4,-6 3,-6 4,-10 5,-13 0,-1 0,-5 -1,-14 0,-8 0,-14 1,-17 0,-3 1,-6 4,-10 1,-1 2,-4 5,-7 2,-3 3,-5 4,-7 0,-1 1,-4 1,-7 0,-4 0,-6 1,-7 1,0 2,2 2,4z"/>
  <path class="fil7" d="M5673 4750c2,5 4,10 5,15 2,4 3,8 4,11 2,7 3,14 3,19 0,6 0,10 -1,12 0,2 -1,4 -1,5 -1,1 -1,2 -2,2 0,-1 -1,-1 -1,-2 0,0 0,-2 -1,-7 -1,-5 -2,-10 -3,-14 -2,-4 -4,-10 -7,-18 -3,-8 -5,-14 -6,-18 -1,-2 -1,-5 -1,-8 -1,-3 -1,-6 -1,-8 0,-3 0,-6 1,-8 0,-3 0,-5 0,-7 1,-2 1,-2 2,-2 0,0 1,0 1,1 0,0 0,2 1,4 1,3 1,5 2,8 1,3 2,6 3,8 1,3 2,5 2,7z"/>
  <path class="fil7" d="M5637 4795c16,24 24,49 24,74 0,25 -8,44 -24,56 -9,6 -18,9 -27,7 -9,-2 -17,-7 -25,-16 -11,-15 -18,-35 -21,-60 -1,-5 -1,-7 1,-6 1,1 2,3 3,4 3,18 8,32 14,41 6,7 12,10 20,11 7,0 15,-3 23,-8 10,-7 17,-17 22,-28 4,-13 5,-25 1,-37 -1,-4 -4,-9 -8,-15 -2,-2 -4,-5 -6,-8 -3,-3 -4,-6 -5,-7 -3,-4 -5,-9 -7,-16 -2,-6 -4,-10 -4,-13 -1,-3 -1,-5 0,-5 1,-1 1,0 2,1 1,1 2,3 4,7 3,3 7,9 13,18z"/>
  <path class="fil7" d="M5615 4831c1,1 2,3 3,5 0,3 1,5 1,8 0,3 0,7 -1,10 -1,2 -2,3 -2,4 -1,0 -2,0 -5,-1 -2,0 -5,0 -7,-1 -2,0 -4,0 -5,-1 -2,0 -3,0 -3,-1 0,-3 -1,-5 -1,-6 0,-5 -1,-8 -1,-11 0,-3 0,-7 0,-13 2,1 5,1 8,2 3,0 6,0 8,1 2,1 3,2 5,4z"/>
  <path class="fil7" d="M5776 4694c2,5 3,11 4,15 1,5 2,9 3,12 1,7 2,14 1,19 0,6 -1,10 -2,12 0,2 -1,4 -1,5 -1,1 -2,1 -2,1 -1,0 -1,0 -1,-1 0,0 0,-3 -1,-8 0,-5 -1,-9 -2,-14 -1,-4 -2,-10 -5,-18 -2,-8 -4,-14 -5,-19 0,-2 0,-5 0,-8 0,-2 0,-5 0,-8 0,-3 1,-6 1,-8 1,-3 1,-5 1,-7 1,-1 1,-2 2,-2 1,0 1,1 1,1 0,1 0,3 1,5 0,2 1,5 1,8 1,3 2,6 2,9 1,2 2,4 2,6z"/>
  <path class="fil7" d="M4684 5963c2,11 -2,26 -11,45 -12,22 -23,33 -33,33 -7,-6 -18,-14 -31,-24 -14,-10 -21,-17 -21,-21l2 -4c4,-8 11,-23 22,-45 2,-5 9,-17 19,-34l4 -5c3,3 7,6 14,10 12,9 19,15 22,19 7,9 11,18 13,26z"/>
  <path class="fil7" d="M4504 5184c2,9 -1,22 -10,39 -10,20 -20,30 -29,30 -7,-5 -16,-12 -28,-21 -12,-9 -18,-15 -18,-19l2 -3c3,-8 10,-21 19,-41 2,-4 8,-14 17,-30l3 -4c3,2 7,5 13,9 10,8 17,13 19,17 7,8 11,15 12,23z"/>
  <path class="fil7" d="M4434 5708l1 15c0,44 18,67 54,67 12,0 22,-16 31,-48 2,-6 4,-9 6,-9 3,0 5,3 5,10 0,5 -1,13 -4,25 -18,84 -44,125 -76,125 -40,0 -69,-29 -69,-100 0,-8 1,-48 2,-59l8 -99c0,-2 0,-3 -1,-4 -2,0 -10,7 -26,25 -117,115 -345,155 -497,180 -152,26 -680,33 -725,0 -45,-34 -57,-124 -45,-124 35,27 46,36 76,41 186,19 726,40 1049,-76 77,-29 133,-74 155,-99 23,-26 32,-48 39,-61 6,-13 39,-93 49,-131l16 20c-1,3 -10,43 -14,63l-21 106c-3,13 -6,39 -10,78 -2,23 -3,41 -3,55z"/>
  <path class="fil7" d="M4547 5255c18,-13 52,-33 102,-61l137 -75c27,-15 59,-34 96,-58 10,-6 40,-26 87,-58 51,-34 79,-53 83,-57 0,3 -1,6 -3,8 -15,36 -57,79 -128,128 -33,23 -81,52 -146,89 -2,1 -55,29 -158,84l-75 39c-30,16 -45,23 -46,21 15,-25 32,-46 51,-60z"/>
  <path class="fil7" d="M3036 5397l0 15c0,47 15,70 46,70 7,-16 15,-35 24,-57 19,4 29,17 31,39 0,27 -6,53 -17,78 -17,34 -38,50 -65,50 -16,0 -30,-7 -42,-22 -6,-7 -11,-15 -15,-23 -2,3 -5,7 -8,12 -13,22 -19,35 -19,41 0,3 4,8 13,15l57 40c22,18 34,38 34,59 0,18 -5,45 -16,80 -26,91 -70,159 -130,205 -37,27 -76,41 -117,41 -44,0 -77,-13 -100,-39 -23,-26 -35,-61 -35,-105 0,-58 18,-126 53,-202 3,-9 23,-47 58,-114 14,-26 22,-39 25,-38 2,1 4,5 4,10 0,8 -3,18 -8,30 -59,128 -88,207 -88,236 0,35 11,61 34,80 20,17 49,26 85,26 44,0 82,-10 114,-30 35,-22 59,-52 72,-92 2,-9 3,-18 -25,-35 -6,-3 -13,-8 -22,-14 -11,-9 -56,-48 -56,-64 0,-12 3,-30 9,-50l23 -65c10,-19 21,-44 34,-72l1 -14 0 -10 0 -1 4 -55c6,-56 4,-81 26,-128 4,-7 17,-9 20,0 0,10 -3,92 -4,103z"/>
  <path class="fil7" d="M2711 5375c1,-2 4,-7 9,-14 1,-2 3,-4 5,-6 2,3 3,6 3,8l-5 33 -6 56 -11 88c-5,36 -13,66 -24,90l-23 47c-14,29 -25,43 -33,43l-3 -7c20,-70 33,-127 39,-172l7 -63 11 -30 31 -73z"/>
  <path class="fil7" d="M2627 5582c-16,56 -34,90 -56,101l-38 18c-17,8 -31,25 -44,52 -10,22 -19,44 -27,66 -13,23 -29,38 -49,47 -12,6 -32,10 -58,14 -9,1 -17,1 -23,1 -8,0 -14,-1 -16,-5 -1,-5 11,-16 37,-32 5,-3 17,-11 35,-23 12,-8 20,-13 24,-16 20,-14 33,-25 40,-35 7,-10 16,-27 26,-51 10,-24 17,-40 22,-47 8,-12 21,-24 38,-35 21,-10 35,-17 41,-22 7,-4 16,-14 29,-30 11,-14 17,-21 18,-21 4,1 4,7 1,18z"/>
  <path class="fil7" d="M2601 5949c2,9 -2,22 -10,39 -11,20 -20,30 -30,30 -6,-5 -15,-12 -27,-21 -12,-9 -18,-15 -18,-19l2 -3c3,-7 9,-21 19,-41 2,-4 8,-14 17,-29l3 -4c2,2 6,5 12,8 11,8 18,14 20,17 6,8 10,15 12,23z"/>
  <path class="fil7" d="M2513 5954c1,9 -2,23 -11,39 -10,20 -20,30 -29,30 -6,-5 -15,-12 -27,-21 -13,-9 -19,-15 -19,-19l2 -3c4,-7 10,-21 19,-41 2,-4 8,-14 17,-29l4 -4c2,2 6,5 12,8 11,8 17,14 19,17 7,8 11,15 13,23z"/>
  <path class="fil7" d="M2437 5389c1,-3 4,-8 9,-15 1,-1 2,-3 5,-6 2,4 3,6 3,8l-5 34 -6 55 -11 88c-5,37 -13,67 -24,90l-23 48c-15,28 -26,42 -34,42l-3 -7c21,-70 34,-127 40,-172l7 -62 11 -31 31 -72z"/>
  <path class="fil7" d="M2163 5663c0,3 1,7 1,11 0,12 -4,24 -12,35 -16,22 -28,34 -36,35 -1,0 -4,-1 -9,-4 -15,-11 -23,-17 -24,-18 -10,-7 -16,-10 -17,-10 -7,-5 -10,-9 -11,-14l23 -51c8,-13 14,-23 19,-31l6 -9c5,2 12,6 21,11 12,8 20,15 25,20 8,8 13,17 14,25z"/>
  <path class="fil7" d="M2292 5715c-6,26 -12,45 -16,57 -32,99 -87,169 -163,210 -29,16 -63,24 -100,24 -42,0 -74,-13 -97,-38 -23,-26 -34,-59 -34,-101 0,-65 28,-146 85,-242 7,-11 12,-17 16,-16 1,1 1,4 1,11 -2,6 -3,12 -4,17l-34 71c-16,34 -24,64 -24,89 0,69 39,104 117,104 83,0 149,-37 197,-111 16,-23 24,-50 24,-80l2 -71c1,-20 7,-44 17,-71l21 -38c5,-11 9,-18 13,-21 3,3 4,8 4,13l-5 34 -5 50c0,29 -5,65 -15,109z"/>
  <path class="fil7" d="M4646 5662l0 15c0,45 19,68 56,68 12,0 22,-16 32,-49 2,-6 4,-9 6,-9 3,0 5,4 5,10 0,5 -1,14 -4,26 -19,86 -45,129 -78,129 -41,0 -61,-37 -61,-110l0 0c0,-48 10,-133 31,-255 4,-19 18,-52 42,-100l4 -2c1,2 0,7 -1,16l-4 27 -18 126c-7,45 -10,81 -10,107l0 1z"/>
  <path class="fil7" d="M5909 4641l0 4c0,13 4,20 12,20 1,-5 3,-10 5,-16 5,1 7,5 8,11 0,7 -2,15 -4,22 -4,9 -10,14 -16,14 -4,0 -7,-2 -10,-6 -2,-3 -3,-5 -4,-7 0,1 -1,2 -2,3 -3,6 -5,10 -5,12 0,1 2,2 4,4l13 11c6,5 9,11 9,17 0,5 -2,12 -4,22 -6,25 -17,44 -32,57 -9,8 -18,12 -28,12 -11,0 -19,-4 -24,-11 -6,-8 -9,-17 -9,-30 0,-16 5,-35 13,-56 1,-2 6,-13 14,-32 4,-7 6,-11 6,-10 1,0 1,1 1,3 0,2 -1,4 -2,8 -14,36 -21,58 -21,66 0,9 3,17 8,22 5,5 12,7 21,7 10,0 20,-3 27,-8 9,-6 15,-15 18,-26 0,-2 1,-5 -6,-9 -2,-1 -3,-3 -5,-4 -3,-3 -14,-14 -14,-18 0,-4 1,-9 2,-14l6 -18c2,-6 5,-13 8,-21l0 -3 0 -3 0 0 1 -16c1,-15 1,-22 7,-36 1,-2 3,-2 4,1 0,2 0,25 -1,28z"/>
  <path class="fil8" d="M5499 6142c28,12 54,21 85,37 18,11 31,22 47,37 25,27 66,79 93,102 -14,-1 -58,-18 -88,-28 -30,-11 -59,-19 -74,-30 -21,-15 -30,-35 -41,-58 -9,-22 -24,-45 -22,-60z"/>
  <path class="fil9" d="M5581 6102c1,-14 4,-11 10,-1 21,34 41,43 71,62 35,29 51,99 69,142 -31,-29 -55,-61 -90,-100 -19,-22 -26,-21 -48,-48 -14,-22 -14,-31 -12,-55z"/>
  <path class="fil9" d="M5516 6236c17,56 179,89 221,100 22,4 55,8 72,11 -11,5 -28,4 -45,5 -40,-2 -144,18 -207,-23 -40,-20 -72,-64 -117,-69 12,-9 46,-30 76,-24z"/>
  <path class="fil0 str2" d="M5490 6171c-30,1 -90,-42 -136,-72 -24,-20 -40,-46 -52,-74 -15,-40 -38,-71 -82,-87 42,-4 81,-11 117,3 1,-31 7,-79 15,-95 9,-16 62,58 70,65 0,-14 18,-55 27,-65 10,-11 18,0 21,9 7,25 13,47 20,70 6,23 18,21 31,60 13,39 15,106 9,151 -15,-6 -35,-10 -50,-13 -3,15 4,31 10,48z"/>
  <path class="fil8 str3" d="M5362 5858c13,29 40,42 59,75 13,26 16,31 25,76 8,58 21,73 30,112 -15,-11 -35,-31 -58,-54 -22,-20 -38,-45 -50,-61 -15,-26 -21,-52 -18,-81 4,-29 3,-51 12,-67z"/>
  <path class="fil9 str4" d="M5333 5955c-1,49 76,118 104,152 18,18 41,34 45,50 -9,3 -25,-10 -32,-14 -31,-18 -95,-52 -116,-86 -23,-37 -32,-91 -70,-109 15,-2 57,-4 69,7z"/>
  <path class="fil9 str4" d="M5452 5869c7,-16 7,-12 11,8 14,42 11,59 31,83 27,42 32,143 22,168 -8,-2 -20,-5 -27,-23 -16,-35 -21,-92 -29,-114 -6,-26 -21,-37 -24,-67 1,-37 10,-44 16,-55z"/>
  <path class="fil0 str5" d="M5343 5867c-29,-4 -73,-42 -106,-91 -21,-28 -30,-53 -36,-83 -6,-42 -9,-54 -49,-79 37,-3 69,-3 99,15 5,-32 23,-110 34,-115 22,6 56,94 60,112 -1,-22 17,-56 29,-72 13,-15 22,2 22,12 -7,27 -5,48 5,71 9,24 15,37 15,75 -1,39 -16,106 -38,144 -9,-6 -12,-9 -23,-16 -5,9 -8,15 -12,27z"/>
  <path class="fil8 str3" d="M5289 5539c24,20 33,62 46,97 21,63 2,129 16,193 -13,-8 -42,-46 -56,-69 -13,-27 -24,-55 -27,-73 -10,-43 6,-109 21,-148z"/>
  <path class="fil9 str4" d="M5247 5643c-6,50 29,127 56,160 14,17 38,30 45,48 -12,5 -21,-3 -34,-11 -33,-23 -55,-51 -77,-86 -24,-38 -18,-103 -49,-128 15,0 46,5 59,17z"/>
  <path class="fil9 str4" d="M5380 5571c1,3 1,6 -2,17 -4,42 11,34 21,85 9,47 -11,147 -27,166 -10,-45 -5,-111 -7,-146 -4,-20 -11,-53 -6,-76 5,-19 13,-30 21,-46z"/>
  <path class="fil0 str5" d="M5263 5567c-24,-20 -47,-41 -64,-94 -11,-33 -15,-53 -13,-87 0,-38 2,-57 1,-96 30,3 47,39 68,67 7,-37 67,-97 86,-98 7,16 1,86 2,106 10,-17 23,-30 40,-39 17,-10 24,2 25,19 0,24 -3,42 -4,66 -1,26 -6,43 -21,78 -15,35 -24,68 -47,103 -4,-13 -32,-73 -52,-81 -7,7 -17,45 -21,56z"/>
  <path class="fil8 str3" d="M5331 5279c2,49 -4,111 -14,156 -6,38 -4,60 -10,97 -6,-9 -14,-24 -26,-24 -14,-25 -20,-59 -19,-106 2,-24 6,-49 16,-67 16,-26 34,-47 53,-56z"/>
  <path class="fil9 str4" d="M5245 5372c-2,39 -7,85 8,120 6,16 11,23 20,37 0,3 -6,16 -7,22 -25,-7 -59,-84 -64,-111 -7,-35 -1,-87 -1,-130 12,5 38,41 44,62z"/>
  <path class="fil9 str4" d="M5393 5336c5,13 0,85 -15,124 -13,32 -33,95 -48,112 -5,-9 -8,-14 -12,-23 4,-32 14,-86 18,-110 3,-16 5,-39 13,-57 4,-13 31,-46 44,-46z"/>
  <path class="fil0 str5" d="M5291 5294c-22,-14 -34,-49 -35,-81 -1,-32 10,-72 18,-102 10,-30 30,-71 42,-101 20,8 40,43 42,77 16,-28 56,-58 72,-56 4,15 -8,106 -10,123 9,-17 32,-34 51,-37 18,-3 26,3 20,23 -11,15 -34,71 -47,91 -18,29 -47,63 -97,63 -2,-12 0,-25 -5,-38 -12,1 -46,29 -51,38z"/>
  <path class="fil9 str4" d="M5345 5098c-22,33 -32,81 -34,122 -1,22 0,33 2,49 -4,6 -7,8 -14,12 -39,-20 -29,-98 -21,-137 9,-43 27,-75 43,-112 23,18 23,37 24,66z"/>
  <path class="fil8 str3" d="M5416 5049c1,29 -7,63 -9,93 -1,7 -2,26 -8,48 -7,18 -16,32 -24,48 -10,15 -13,22 -27,34 -3,-3 -2,-14 -5,-18 -3,-4 -9,4 -15,5 -3,-5 -5,-26 -4,-38 3,-28 7,-53 15,-76 8,-24 21,-38 35,-56 11,-14 28,-37 42,-40z"/>
  <path class="fil9 str4" d="M5475 5141c-16,25 -22,54 -39,80 -8,12 -15,20 -28,35 -14,13 -28,23 -53,24 30,-17 52,-59 63,-89 7,-15 11,-35 26,-46 9,-6 48,-31 31,-4z"/>
  <path class="fil10 str3" d="M5716 6418c-34,9 -60,5 -104,2 19,8 22,8 34,17 -6,10 -13,19 -17,27 38,4 76,1 113,-1 63,-6 -5,-27 -26,-45z"/>
  <path class="fil10 str3" d="M5835 6377c18,-3 17,7 6,20 -24,27 -79,6 -83,32 -18,-13 -33,-18 -44,-39 46,-6 76,0 121,-13z"/>
  <g id="_179641696">
   <path class="fil10 str3" d="M6078 6430c33,9 60,4 104,2 -19,8 -22,8 -34,16 6,11 12,20 17,28 -39,4 -77,1 -114,-1 -62,-6 5,-27 27,-45z"/>
   <path class="fil10 str3" d="M5959 6389c-18,-4 -17,7 -7,20 25,27 80,6 84,32 17,-14 32,-18 43,-40 -45,-5 -75,1 -120,-12z"/>
  </g>
  <path class="fil8" d="M6033 6274c-11,13 -55,51 -68,66 -4,-2 -13,-17 -16,-19 -3,-9 0,-16 18,-30 17,-13 22,-18 39,-31 12,-10 8,-18 -10,-9 -10,8 -18,12 -26,17 -26,16 -33,-9 -78,-9 -44,0 -50,21 -67,8l-26 -19c-7,-6 -21,-5 -15,8 6,5 11,11 22,20 10,9 28,26 39,40 -1,1 -8,22 -10,25 -24,-16 -41,-31 -70,-47 0,-22 1,-40 1,-62 23,-1 52,-1 76,-2 16,-8 28,-19 50,-19 26,0 35,19 60,19 20,0 60,2 82,0 0,20 0,29 -1,44z"/>
  <path class="fil11" d="M5859 6314c-5,-11 -10,-20 -20,-28 45,-17 68,-16 110,0 -6,8 -10,16 -13,28 -8,-6 -22,-8 -32,0 -7,3 -12,2 -17,0 -12,-6 -19,-6 -28,0z"/>
  <path class="fil8" d="M5939 6356c-4,20 -13,38 -44,27 -20,6 -26,6 -39,-10 -8,-15 -7,-36 8,-47 13,-8 19,7 37,-1 28,-9 41,11 38,31z"/>
  <path class="fil0 str2" d="M5967 6357c17,20 69,19 102,17 35,23 66,9 95,7 18,4 27,8 42,8 27,2 50,-19 58,-44 18,1 26,3 39,-2 14,-20 34,-29 47,-23 -1,-15 -3,-21 -3,-28 -21,-6 -47,-10 -61,-10 1,-9 2,-24 9,-31 13,-1 22,-25 21,-40 10,-16 12,-17 18,-30 4,-9 2,-24 -11,-27 -9,1 -30,6 -57,19 -19,9 -37,6 -52,15 5,-31 3,-41 1,-67 0,0 -36,-9 -55,28 -22,5 -54,24 -68,37 -1,19 -4,24 -13,43 -6,12 -9,17 -14,31 -6,41 -26,43 -39,64 -12,3 -23,7 -35,11l-24 22z"/>
  <path class="fil9" d="M6202 6133c2,16 3,40 0,50 -3,10 -7,10 -7,23 -9,-9 -16,-13 -31,-6 -16,7 -17,15 -20,39 -7,2 -18,0 -25,4 -8,5 -10,16 -13,25 -6,18 -28,34 -48,41 12,-12 16,-13 20,-42 8,-31 23,-35 27,-73 19,-14 44,-32 65,-33 4,-14 16,-28 32,-28z"/>
  <path class="fil8" d="M6303 6203c-2,19 1,29 -18,40 -10,7 -8,22 -13,34 -10,-1 -31,-6 -45,-3 -13,5 -12,22 -13,36 -5,1 -4,1 -16,4 -8,-17 -18,-22 -35,-20 -15,4 -20,9 -36,17 -42,24 -53,21 -100,27 35,-10 51,-13 75,-35 8,-8 16,-19 20,-29 2,-6 1,-11 5,-16 8,-7 21,1 30,-1 2,-8 3,-21 7,-29 4,-8 10,-18 22,-4 31,3 27,-8 23,-21 9,-2 24,-2 32,-3 16,-1 19,-20 37,-16 11,-2 23,-8 33,-14 20,-11 8,24 -8,33z"/>
  <path class="fil9" d="M6334 6304c-23,4 -24,10 -39,26 -17,-1 -34,-1 -43,8 -5,5 -1,14 -19,25 -18,11 -30,16 -68,3 -38,7 -65,12 -93,-5 -16,0 -43,2 -64,-2 26,-4 73,0 113,-23 16,-10 26,-17 43,-24 18,-4 21,8 23,20 40,0 44,-11 47,-39 40,-4 65,1 100,11z"/>
  <path class="fil0 str2" d="M6215 6184c27,-2 56,-12 85,-27 45,-30 70,-43 97,-52 18,-1 46,3 61,2 -1,-16 -1,-35 12,-41 11,-6 15,-18 13,-26 -12,-16 -16,-35 2,-28 27,-3 31,-28 44,-42 3,-33 -2,-38 21,-49 -12,-5 -18,-9 -35,-11 -22,1 -27,7 -40,10 9,-53 -3,-53 -38,-40 -27,12 -36,18 -53,27 -7,-31 -29,-34 -41,-56 -21,5 -27,7 -30,49 -7,5 -24,22 -27,29 10,9 9,22 4,33 -23,14 -48,30 -45,49 16,20 24,78 -7,99 -8,13 -11,28 -18,38l-5 36z"/>
  <path class="fil8" d="M6465 5887c6,11 -4,18 -3,39 -15,3 -28,6 -33,33 -3,14 2,44 -4,52 -28,4 -37,4 -60,9 -14,9 -1,40 -12,48 -12,8 -12,5 -23,19 -10,14 -18,17 -30,27 -25,21 -40,37 -42,36 20,-24 25,-29 40,-60 8,-17 9,-25 11,-41 4,-12 10,-14 18,-21 2,-11 3,-23 0,-29 -5,-6 -7,-5 -13,-9 4,-5 9,-15 13,-16 2,-10 3,-16 9,-20 23,4 34,-8 49,-26 4,-6 18,-12 27,-16 12,-6 20,-10 32,-17 10,-6 15,-12 21,-8z"/>
  <path class="fil9" d="M6337 5865c2,15 31,18 33,40 -1,10 -2,14 -11,25 -9,9 -16,8 -32,4 -7,11 -11,19 -14,29 -8,14 -42,29 -4,45 3,20 -4,18 -12,28 -8,9 -8,20 -9,32 -8,25 -34,66 -55,84 2,-10 11,-22 15,-32 14,-10 19,-19 23,-36 -3,-34 6,-47 -12,-77 -1,-16 24,-22 38,-35 8,-8 16,-28 5,-43 8,-10 13,-14 23,-21 4,-17 -2,-32 12,-43z"/>
  <path class="fil9" d="M6524 5926c-12,11 -1,25 -8,39 -9,10 -13,22 -23,31 -12,7 -20,-1 -28,7 -17,24 16,39 3,48 -19,12 -19,25 -22,42 -52,-4 -70,3 -99,20 -20,4 -53,41 -77,48 26,-24 80,-70 105,-90 5,-19 -4,-17 1,-34 32,-5 53,-6 61,-6 11,-27 9,-51 10,-75 3,-14 24,-18 31,-21 20,-9 29,-14 46,-9z"/>
  <path class="fil0 str2" d="M6385 5905c18,-12 57,-30 88,-31 16,-14 22,-17 30,-25 22,-2 32,-2 43,-11 11,-19 19,-17 33,-19 15,-8 20,-26 17,-49 -1,-9 -7,-18 -11,-23 2,-8 23,-12 27,-23 2,-5 3,-13 -1,-23 -2,-34 8,-53 9,-79 -14,-2 -38,3 -51,33 1,-11 1,-31 -13,-43 -12,-11 -16,-23 -22,-33 -32,6 -51,30 -63,45 -6,-25 -37,-33 -55,-51 -3,21 -3,36 -2,51 -3,4 -16,2 -21,20 -6,12 -1,24 10,31 -39,17 -27,83 -16,92 33,42 8,96 -6,127l4 11z"/>
  <path class="fil9" d="M6461 5649c-18,24 -35,22 -39,40 -2,10 7,15 11,24 -8,10 -14,7 -15,18 1,23 10,53 12,84 3,26 -11,75 -35,81 17,-31 25,-61 20,-98 -2,-13 -9,-30 -21,-44 -11,-16 -4,-37 4,-58 7,-14 16,-7 21,-17 4,-11 -14,-12 -15,-24 2,-14 3,-17 22,-20 2,-12 2,-19 2,-36 18,12 43,25 33,50z"/>
  <path class="fil8" d="M6556 5641c-3,20 -9,55 -12,68 -11,9 -24,10 -28,22 -5,10 5,21 1,31 -6,16 -22,18 -31,31 -12,12 -18,27 -27,43 -11,16 -13,24 -26,37 8,-21 15,-33 17,-56 3,-25 -18,-60 -13,-85 6,-3 15,-4 16,-17 -2,-9 -9,-17 -11,-23 7,-16 31,-20 37,-32 3,-12 -3,-18 3,-28 2,-2 43,-38 45,-38 6,23 23,27 29,47z"/>
  <path class="fil9" d="M6605 5638c-2,19 -10,57 -6,82 -13,10 -28,10 -28,30 8,13 21,22 5,55 -8,5 -24,-2 -40,23 -13,10 -32,7 -39,7 -14,14 -20,21 -35,30 15,-37 47,-69 73,-95 6,-14 -4,-23 3,-36 11,-5 20,-6 24,-19 4,-31 17,-70 43,-77z"/>
  <path class="fil0 str2" d="M6471 5624c13,-17 32,-33 60,-46 16,-21 44,-47 61,-63 3,-22 15,-42 32,-44 4,-18 6,-31 -4,-45 -5,-6 -13,-8 -19,-11 0,-14 2,-15 11,-36 1,-33 -10,-62 -26,-86 -12,9 -26,29 -43,54 -8,-14 7,-50 -9,-57 -6,-19 -23,-25 -30,-25 -19,39 -43,65 -54,84 -23,-8 -26,-30 -44,-18 -12,14 4,25 5,47 4,46 -33,71 1,108 5,75 40,65 47,119l12 19z"/>
  <path class="fil8" d="M6544 5452c-2,13 -10,29 -14,41 -16,35 -27,76 -42,108 4,-25 2,-60 2,-85 -9,-11 -18,-19 -22,-33 4,-8 10,-15 11,-27 -13,-23 -19,-28 -16,-58 8,-1 19,-5 24,-14 0,-11 -20,-21 -24,-31 5,-8 36,-50 46,-73 6,2 10,10 13,14 3,2 7,3 8,13 -1,9 -2,34 -3,49 0,19 15,27 18,42 -4,6 -23,14 -21,25 2,9 17,20 20,29z"/>
  <polygon class="fil6" points="116,-346 8384,-346 8384,11346 116,11346 "/>
  <path class="fil9" d="M6610 5435c1,8 2,17 2,27 -14,5 -28,21 -32,45 -20,16 -36,35 -58,62 6,-21 23,-68 35,-91 9,-26 2,-45 -13,-56 4,-8 15,-10 19,-18 4,-19 -16,-30 -14,-47 14,-15 20,-24 34,-41 13,22 16,37 16,58 -7,11 -12,30 -11,47 6,4 16,10 22,14z"/>
  <path class="fil9" d="M6472 5526c2,29 5,57 -1,74 -2,-16 -10,-33 -18,-45 -19,-30 -28,-38 -28,-79 -24,-11 -5,-42 -2,-60 4,-17 3,-53 -6,-74 0,-2 1,-2 3,0 9,20 29,15 45,36 -44,19 -10,69 -6,83 -2,6 -9,12 -11,24 4,13 16,30 24,41z"/>
  <path class="fil0 str2" d="M6475 5311c10,-15 13,-18 27,-47 1,-3 6,3 14,2 14,-24 29,-61 35,-76 -5,-32 -37,-29 -10,-62 -2,-19 -21,-36 -20,-58 -27,11 -29,-60 -63,-61 -6,12 -1,34 -28,55 -2,-2 -4,-5 -6,-7 -19,-10 -36,-16 -49,-17 -9,24 -11,31 -10,58 -11,-9 -47,-5 -72,-7 3,18 22,54 35,72 -12,32 14,54 37,66 8,10 9,27 21,36 7,3 18,1 28,4 14,6 30,19 61,42z"/>
  <path class="fil8" d="M6474 5176c0,36 7,61 9,97 -11,-16 -35,-44 -54,-58 0,-10 -3,-25 -3,-34 -17,0 -54,-16 -30,-40 6,-9 5,-14 3,-24 -28,-17 -20,-33 -18,-66 14,6 20,6 34,13 2,21 13,25 19,31 10,11 23,8 32,22 7,18 -16,27 8,59z"/>
  <path class="fil9" d="M6477 5297c-23,-15 -39,-33 -63,-41 -18,-1 -22,5 -29,-16 -4,-11 -5,-13 -9,-22 -14,-6 -47,-21 -33,-58 -13,-17 -22,-33 -29,-55 11,2 27,0 39,2 15,5 17,9 28,21 -3,10 -12,12 -13,29 0,25 24,32 40,39 4,9 5,18 3,25 13,20 65,50 66,76z"/>
  <path class="fil9" d="M6516 5156c6,14 13,15 20,33 -15,34 -13,37 -38,72 -2,-47 -1,-79 -14,-106 -5,-14 0,-34 0,-43 -6,-16 -36,-29 -45,-38 14,-17 24,-20 29,-46 18,17 13,54 40,55 2,14 14,28 18,45 -2,9 -16,12 -10,28z"/>
 </g>
</svg>
